HIERARCHY
ROOT Hips
{
	OFFSET -44.602631 92.727097 387.457703
	CHANNELS 6 Xposition Yposition Zposition Zrotation Yrotation Xrotation 
	JOINT LeftUpLeg
	{
		OFFSET 0.103457 1.857834 10.548504
		CHANNELS 3 Xrotation Yrotation Zrotation
		JOINT LeftLeg
		{
			OFFSET 43.499996 -0.000046 0.000000
			CHANNELS 3 Xrotation Yrotation Zrotation
			JOINT LeftFoot
			{
				OFFSET 42.372192 0.000027 0.000002
				CHANNELS 3 Xrotation Yrotation Zrotation
				JOINT LeftToe
				{
					OFFSET 17.299994 -0.000003 -0.000001
					CHANNELS 3 Xrotation Yrotation Zrotation
					End Site
					{
						OFFSET 0.000000 0.000000 0.000000
					}
				}
			}
		}
	}
	JOINT RightUpLeg
	{
		OFFSET 0.103456 1.857832 -10.548504
		CHANNELS 3 Xrotation Yrotation Zrotation
		JOINT RightLeg
		{
			OFFSET 43.500046 -0.000011 0.000010
			CHANNELS 3 Xrotation Yrotation Zrotation
			JOINT RightFoot
			{
				OFFSET 42.372261 -0.000034 0.000021
				CHANNELS 3 Xrotation Yrotation Zrotation
				JOINT RightToe
				{
					OFFSET 17.300011 0.000001 0.000002
					CHANNELS 3 Xrotation Yrotation Zrotation
					End Site
					{
						OFFSET 0.000000 0.000000 0.000000
					}
				}
			}
		}
	}
	JOINT Spine
	{
		OFFSET 6.901965 -2.603721 0.000001
		CHANNELS 3 Xrotation Yrotation Zrotation
		JOINT Spine1
		{
			OFFSET 12.588100 0.000000 -0.000000
			CHANNELS 3 Xrotation Yrotation Zrotation
			JOINT Spine2
			{
				OFFSET 12.343206 0.000005 0.000000
				CHANNELS 3 Xrotation Yrotation Zrotation
				JOINT Neck
				{
					OFFSET 25.832893 -0.000008 0.000000
					CHANNELS 3 Xrotation Yrotation Zrotation
					JOINT Head
					{
						OFFSET 11.766617 0.000009 0.000001
						CHANNELS 3 Xrotation Yrotation Zrotation
						End Site
						{
							OFFSET 0.000000 0.000000 0.000000
						}
					}
				}
				JOINT LeftShoulder
				{
					OFFSET 19.745899 -1.480394 6.000106
					CHANNELS 3 Xrotation Yrotation Zrotation
					JOINT LeftArm
					{
						OFFSET 11.284122 -0.000030 -0.000014
						CHANNELS 3 Xrotation Yrotation Zrotation
						JOINT LeftForeArm
						{
							OFFSET 33.000050 0.000020 0.000016
							CHANNELS 3 Xrotation Yrotation Zrotation
							JOINT LeftHand
							{
								OFFSET 25.200014 -0.000003 0.000011
								CHANNELS 3 Xrotation Yrotation Zrotation
								End Site
								{
									OFFSET 0.000000 0.000000 0.000000
								}
							}
						}
					}
				}
				JOINT RightShoulder
				{
					OFFSET 19.746094 -1.480381 -6.000073
					CHANNELS 3 Xrotation Yrotation Zrotation
					JOINT RightArm
					{
						OFFSET 11.284140 -0.000016 -0.000006
						CHANNELS 3 Xrotation Yrotation Zrotation
						JOINT RightForeArm
						{
							OFFSET 33.000088 0.000015 0.000002
							CHANNELS 3 Xrotation Yrotation Zrotation
							JOINT RightHand
							{
								OFFSET 25.199776 0.000133 0.000416
								CHANNELS 3 Xrotation Yrotation Zrotation
								End Site
								{
									OFFSET 0.000000 0.000000 0.000000
								}
							}
						}
					}
				}
			}
		}
	}
}
MOTION
Frames: 15
Frame Time: 0.033333
-273.594086 89.922623 29.870100 84.201793 3.133131 -50.946040 156.747582 4.614303 176.437078 -65.072469 -0.277656 -10.534107 78.918745 6.785118 -2.760876 21.454553 0.003107 0.000015 -176.862967 2.083106 -170.869791 -32.836432 0.190417 3.752122 90.086295 -2.604210 -0.165944 21.454557 -0.003104 0.000004 9.447150 -0.850613 0.902073 8.869108 -1.767734 1.736500 8.550984 -1.757347 1.747144 -9.551723 -2.453056 -3.111801 -8.289183 2.105548 -4.518335 141.983268 -73.512814 37.571754 23.764004 55.922843 31.908315 -99.754715 -1.221410 2.868961 5.304999 -7.060781 33.807903 -179.504775 75.482989 1.898324 -4.770190 -60.347884 -9.737043 -105.632202 -1.038054 -2.926465 6.773510 14.236454 -11.768730 
-278.242889 92.128906 24.594469 85.168887 3.349414 -51.310068 155.958122 4.182607 177.752996 -52.957899 -1.145876 -9.522723 78.289636 5.775399 -4.132749 21.454555 0.003113 0.000020 -172.600711 3.086502 -169.497537 -28.711393 1.324558 1.683104 77.709098 -1.066280 0.691395 21.454550 -0.003087 -0.000003 9.186646 -0.860847 1.164769 8.343652 -1.803259 2.264730 8.025636 -1.789684 2.275570 -10.295639 -2.514192 -3.443009 -8.171030 1.675251 -4.750254 140.944915 -74.525205 38.549646 29.284235 55.203867 36.151187 -101.718305 -0.914780 2.935209 6.167689 -6.300016 33.532059 -179.157706 75.486090 2.253730 -5.757334 -60.558233 -10.757357 -109.637903 -1.987696 -3.035194 6.497441 15.879631 -5.740720 
-282.851196 93.727966 19.140610 86.553530 3.318275 -51.571050 156.193613 3.296706 178.702952 -39.728748 -1.550481 -8.693644 76.554024 4.886334 -5.263702 21.454560 0.003113 0.000018 -169.728206 3.282105 -166.380936 -27.374500 0.543253 -0.837087 68.990006 1.754391 3.442881 21.454558 -0.003088 0.000001 8.870581 -0.712933 1.280747 7.712436 -1.509413 2.511389 7.394530 -1.494352 2.520457 -11.316674 -3.263356 -3.422827 -6.842790 1.909921 -5.055784 139.753525 -74.993571 39.723325 34.116873 53.816741 39.847713 -103.254101 -0.574088 2.979806 6.617466 -5.609518 33.886624 179.817912 76.007131 1.215891 -6.119828 -59.409368 -13.911692 -112.061104 -2.286946 -3.118756 5.646090 15.746304 -2.425976 
-287.421387 94.036911 13.575340 87.750671 2.301028 -51.824948 158.002520 1.666305 -179.227784 -28.104755 -2.632620 -7.972946 76.696898 3.721757 -7.954245 21.454558 0.003105 0.000016 -168.565080 1.765189 -167.108610 -31.161929 -1.525186 -0.780893 65.847969 2.201788 4.300434 21.454551 -0.003088 -0.000006 8.739492 -0.482493 1.315253 7.454562 -1.048453 2.596853 7.136772 -1.032892 2.603116 -11.487919 -2.595322 -3.639559 -6.454659 1.356264 -4.861893 137.396905 -76.124514 42.023678 36.834961 52.698307 43.088744 -103.730711 -0.475155 2.994066 5.548201 -6.552128 33.685608 178.314506 76.327992 -0.314278 -5.888704 -58.239589 -17.122258 -113.741610 -2.570758 -3.170739 4.947591 14.290912 -2.341392 
-291.678802 93.256912 8.287364 87.708372 1.150698 -52.026009 159.683198 0.853392 -178.137781 -22.622275 -3.940642 -8.694706 77.491378 4.585844 -6.867345 21.454557 0.003111 0.000017 -167.943464 0.520699 -171.566470 -37.920913 -2.136992 2.921521 66.441314 0.081515 5.857000 21.454557 -0.003094 0.000003 8.910683 -0.374851 1.186415 7.800243 -0.828622 2.344931 7.482391 -0.814584 2.349889 -11.388126 -2.683176 -3.509703 -6.853472 1.769812 -4.886669 137.806429 -76.389594 41.587560 36.263585 50.964583 43.344650 -103.878803 -0.395145 2.995075 5.749741 -6.526131 33.492529 176.798299 76.497805 -1.859621 -6.297147 -56.827341 -19.473110 -113.897011 -2.636903 -3.172769 4.997707 12.890440 -2.396308 
-296.061310 91.351227 3.368518 86.597837 0.401465 -52.593993 160.798021 2.091294 179.486402 -23.959530 -3.119316 -8.758959 75.890164 4.972881 -5.294979 21.454557 0.003109 0.000016 -168.645922 1.456689 -173.081611 -47.499512 -2.870326 5.193901 69.727858 -1.635057 6.051269 21.454555 -0.003099 0.000004 9.164994 -0.500451 1.023453 8.308082 -1.072928 2.008431 7.990148 -1.060920 2.014857 -9.832918 -3.759788 -3.140961 -8.087961 3.545328 -5.420933 138.792121 -75.848417 40.631474 33.874340 49.277769 41.862964 -102.778501 -0.651933 2.964082 3.690449 -6.705073 33.089145 175.523841 76.543498 -3.160431 -5.928941 -55.666619 -21.875752 -112.916004 -2.351507 -3.150784 5.010593 10.441009 -2.530028 
-300.152588 89.037956 -1.234784 85.717385 0.248828 -53.722047 161.102197 3.305698 175.831103 -30.313035 -1.959845 -8.113980 79.384038 5.989438 0.661432 21.454557 0.003112 0.000017 -171.741664 2.983706 -172.403332 -57.871776 -4.767393 7.468475 72.257924 -3.814200 4.377782 21.454551 -0.003084 -0.000005 9.254855 -0.740733 0.869290 8.486300 -1.543077 1.682088 8.168221 -1.533032 1.691374 -8.679076 -1.756434 -3.407700 -8.114406 2.231768 -4.580899 137.929373 -75.365223 41.544708 31.486540 47.574655 39.897529 -100.920792 -0.871920 2.896659 4.120640 -6.199746 32.645371 175.681099 75.720693 -3.022691 -5.270758 -54.694044 -24.143165 -110.081892 -1.889286 -3.061188 4.964409 8.422731 -1.119736 
-304.532806 86.642754 -5.317189 83.864252 1.697065 -54.892943 159.959151 6.362594 173.730957 -39.953458 -0.906353 -9.109740 87.499334 6.081191 -1.637314 21.454558 0.003099 0.000018 -177.348840 7.167601 -171.954780 -68.994282 -5.863930 9.657981 75.189502 -5.572654 3.739791 21.454551 -0.003083 -0.000003 9.211565 -1.338238 0.562266 8.400447 -2.713613 1.026254 8.082019 -2.707507 1.042633 -7.200805 -1.643130 -3.455892 -9.750509 2.844627 -4.807212 138.444574 -74.537383 41.088096 27.386808 46.315434 36.563075 -97.841333 -1.479301 2.801362 2.579395 -5.894527 33.708261 177.354318 75.902827 -1.306516 -4.155149 -55.500440 -26.069157 -106.168098 -1.201267 -2.938621 6.667121 6.943451 -6.072802 
-308.445007 85.086571 -9.586433 83.090508 2.317478 -55.415046 161.192546 7.182799 172.814195 -45.641827 -1.290936 -8.734986 93.634667 5.711223 -2.546101 21.454557 0.003103 0.000017 175.869380 8.623594 -172.866911 -77.457371 -6.128348 11.121810 78.847834 -7.355986 0.854984 21.454545 -0.003088 -0.000003 9.396537 -1.662625 0.252622 8.778441 -3.339514 0.378560 8.459744 -3.337295 0.398745 -8.574341 -1.151925 -3.746987 -9.281523 3.412380 -5.076638 142.308781 -71.863849 37.366066 19.677456 43.934550 29.860556 -94.164205 -2.592009 2.714353 2.975393 -7.339997 33.555890 179.106288 73.241286 0.426077 -2.713706 -54.608455 -26.322007 -102.006799 0.243495 -2.855850 5.615395 8.115323 -21.627482 
-311.615997 85.406837 -14.071930 84.330768 2.476339 -56.098020 164.647557 5.561294 170.081109 -45.228522 -0.529796 -7.070788 95.834965 4.528667 -3.015093 21.454560 0.003110 0.000017 168.394790 6.347508 -174.891105 -79.771562 -5.675015 10.292744 81.761264 -7.074441 -0.543969 21.454553 -0.003080 -0.000007 9.440792 -1.437703 0.016137 8.872528 -2.872323 -0.078000 8.553980 -2.872863 -0.060640 -9.709836 -0.326037 -3.747991 -9.845006 2.701203 -4.591636 140.671585 -72.390846 38.993280 13.157397 46.100150 26.887233 -90.500471 -5.307809 2.740322 0.743877 -9.067062 34.794599 -178.060996 73.463425 3.341008 0.916261 -56.206190 -27.617882 -100.100705 0.748605 -2.806612 0.781377 10.169839 -27.900851 
-314.978088 86.900368 -18.878321 85.121253 2.390228 -56.401981 170.180338 5.353896 171.592752 -40.891301 -0.869145 -7.286772 93.833986 4.546401 -3.903307 21.454557 0.003103 0.000018 163.164600 4.236093 -175.102268 -76.184292 -5.711116 8.160001 82.840373 -5.507449 -0.105619 21.454551 -0.003083 -0.000005 9.450237 -1.135950 -0.576926 8.901359 -2.224114 -1.239702 8.583062 -2.231682 -1.226248 -10.341369 0.430713 -3.041358 -9.500413 1.674968 -3.306605 140.124568 -72.240425 39.562071 11.839273 47.982950 21.940741 -92.834722 -3.691564 2.731672 0.800494 -8.997917 34.819311 -177.077695 73.827201 4.357111 5.553505 -55.706507 -29.798199 -103.367004 -0.125942 -2.890214 3.739645 11.440018 -20.402511 
-318.334808 89.234093 -24.189880 86.133685 2.813309 -55.975958 175.040168 5.054196 174.737249 -35.894154 -1.719486 -8.181135 86.403122 4.979064 -4.197863 21.454560 0.003108 0.000018 159.537195 2.627397 -175.939676 -67.284303 -3.092916 6.652725 81.529694 -4.334889 0.978582 21.454557 -0.003104 0.000005 9.232442 -0.803886 -1.270647 8.469949 -1.512640 -2.596861 8.152090 -1.528419 -2.587696 -10.201427 1.324472 -2.647458 -9.478861 0.911216 -2.371090 137.868789 -72.468758 41.839116 11.779172 50.052197 20.119137 -96.213685 -1.976665 2.763185 0.526149 -10.049431 33.651966 -175.114903 74.054420 6.375483 9.549282 -54.008608 -32.279177 -107.166092 -1.146622 -2.986056 5.213378 11.911910 -13.511449 
-321.974396 91.857048 -29.935860 86.431181 3.412890 -56.562009 179.189494 4.424695 173.908815 -31.992698 -1.771320 -7.247449 74.160206 3.846485 -4.868350 21.454558 0.003107 0.000018 158.223313 1.415695 -176.673594 -54.836867 -1.385161 5.481526 80.190307 -3.076664 3.116949 21.454543 -0.003089 -0.000003 8.999865 -0.668085 -1.605221 8.004745 -1.223624 -3.252890 7.687115 -1.243369 -3.245453 -10.831200 2.178738 -2.696208 -8.230414 0.398341 -1.930318 136.789168 -72.783705 42.911060 11.253847 50.970031 20.295924 -99.858390 -1.008033 2.858709 1.082297 -8.700008 31.148173 -173.170485 74.215920 8.373249 13.397485 -52.556581 -34.726526 -109.938602 -1.747649 -3.064808 5.778406 12.244258 -9.139550 
-326.088989 93.822128 -36.041828 85.662190 3.746809 -57.592039 -177.364249 4.016401 173.081133 -31.178338 -2.501846 -5.890514 63.690080 2.137945 -5.844730 21.454565 0.003118 0.000014 159.171944 0.873196 -176.345430 -40.835119 -0.958551 2.809167 78.388032 -0.596686 5.470367 21.454551 -0.003101 -0.000002 8.845052 -0.691670 -1.706595 7.696897 -1.268448 -3.455522 7.379367 -1.289429 -3.447823 -11.385284 2.279023 -2.727686 -6.701174 0.492780 -1.923273 135.734341 -72.938893 43.969763 10.776631 51.664101 21.592210 -103.269100 -0.306406 2.961825 1.658208 -7.798375 32.424038 -171.313370 74.826191 10.283217 17.736159 -51.547192 -37.649649 -111.782104 -2.111282 -3.118945 5.109579 12.427306 -6.423544 
-330.485504 94.978394 -42.072151 84.348998 4.085382 -58.661011 -174.922757 5.082209 172.933027 -32.978510 -1.769067 -5.070572 57.424604 0.314308 -7.803606 21.454557 0.003108 0.000018 160.867020 1.333803 -175.791502 -28.063828 -0.139129 0.427749 77.383154 2.110344 9.213643 21.454557 -0.003085 0.000002 8.677558 -0.851375 -1.704420 7.367074 -1.592693 -3.459773 7.049480 -1.613683 -3.450107 -10.493258 2.725624 -2.908573 -7.460980 0.341814 -1.923455 133.993531 -73.237878 45.711919 11.079386 52.277534 23.817739 -105.672896 0.320132 3.024714 0.740938 -8.014473 32.519190 -168.491696 75.885300 13.177926 20.711224 -51.247094 -40.699629 -111.590504 -2.010178 -3.117718 4.879598 13.072848 -3.601844 
